# xmcd CD database file
#
# Track frame offsets:
#	150
#	25401
#	49813
#	72081
#	95301
#	111796
#	133082
#	157541
#	177501
#	194959
#	220791
#	248926
#	284386
#
# Disc length: 3816 seconds
#
# Revision: 0
# Processed by: cddbd v1.5.2PL0 Copyright (c) Steve Scherf et al.
# Submitted via: CDex 1.51
#
DISCID=be0ee60d
DTITLE=Melissa Walker - In The Middle Of It All
DYEAR=2009
DGENRE=Jazz
TTITLE0=In The Middle Of It All
TTITLE1=Don't Give Up
TTITLE2=The Way He Makes Me Feel
TTITLE3=I'll Sing A Song
TTITLE4=The Other Woman
TTITLE5=Forget Me
TTITLE6=Mr. Bojangles
TTITLE7=If You Could Love Me
TTITLE8=Invitation
TTITLE9=I'm With You Now
TTITLE10=Our Love Remains
TTITLE11=Where Or When
TTITLE12=Data Track
EXTD=YEAR: 2009
EXTT0=
EXTT1=
EXTT2=
EXTT3=
EXTT4=
EXTT5=
EXTT6=
EXTT7=
EXTT8=
EXTT9=
EXTT10=
EXTT11=
EXTT12=
PLAYORDER=
